<svg width="161" height="40" viewBox="0 0 161 40" fill="none"
    xmlns="http://www.w3.org/2000/svg">
    <path d="M10.6269 0.00173056L10.6269 0L1.10824 0.0652234C0.491902 0.0694466 -0.00426277 0.564694 2.76161e-05 1.17139C0.004318 1.77809 0.507438 2.26649 1.12378 2.26226L8.86614 2.20921L10.0733 7.3021H6.57346C6.3631 7.3021 6.20703 7.49416 6.25324 7.69618L11.6423 31.2554C11.6537 31.3054 11.6989 31.3409 11.7509 31.3409C11.7765 31.3409 11.8 31.3324 11.8188 31.3181C11.8563 31.3328 11.8973 31.3409 11.9401 31.3409H37.477C37.6583 31.3409 37.8052 31.1962 37.8052 31.0178V30.7818L43.086 7.69618C43.1322 7.49416 42.9761 7.3021 42.7658 7.3021H38.0022C37.8948 7.3021 37.7995 7.35285 37.7396 7.43131C37.6797 7.35285 37.5844 7.3021 37.477 7.3021H12.3653L10.6345 2.13383e-06L10.6269 0.00173056Z" fill="#FFF3E6"/>
    <path d="M37.477 36.769C37.477 38.5534 36.0075 40 34.1947 40C32.3818 40 30.9123 38.5534 30.9123 36.769C30.9123 34.9845 32.3818 33.538 34.1947 33.538C36.0075 33.538 37.477 34.9845 37.477 36.769Z" fill="#FFF3E6"/>
    <path d="M15.4194 40C17.2322 40 18.7018 38.5534 18.7018 36.769C18.7018 34.9845 17.2322 33.538 15.4194 33.538C13.6066 33.538 12.137 34.9845 12.137 36.769C12.137 38.5534 13.6066 40 15.4194 40Z" fill="#FFF3E6"/>
    <path d="M20.2731 24.8103V17.543L23.932 20.6307C24.0712 20.7482 24.2273 20.8331 24.3908 20.8862C24.8492 21.0763 25.3958 21.01 25.8005 20.6685L29.3043 17.7117V24.8103C29.3043 25.5603 29.9155 26.1682 30.6694 26.1682C31.4234 26.1682 32.0346 25.5603 32.0346 24.8103V14.8866C32.0346 14.2859 31.6424 13.7762 31.0988 13.5972C30.6422 13.4113 30.0996 13.4788 29.6973 13.8183L24.8886 17.8764L20.0351 13.7804C19.6375 13.4449 19.1029 13.375 18.6497 13.5529C18.0192 13.673 17.5428 14.2245 17.5428 14.8866V24.8103C17.5428 25.5603 18.154 26.1682 18.9079 26.1682C19.6619 26.1682 20.2731 25.5603 20.2731 24.8103Z" fill="#FA87A1"/>
    <path d="M53.1588 28.4889C52.162 28.4889 51.188 28.3822 50.237 28.1688C49.2975 27.9441 48.5241 27.6465 47.9168 27.2759L49.223 24.3781C49.7959 24.7038 50.4376 24.9678 51.1479 25.1699C51.8583 25.3609 52.5401 25.4563 53.1932 25.4563C53.7546 25.4563 54.1556 25.4058 54.3963 25.3047C54.6369 25.1924 54.7572 25.0295 54.7572 24.8161C54.7572 24.5691 54.5968 24.3837 54.2759 24.2602C53.9666 24.1366 53.451 24.0019 52.7291 23.8559C51.801 23.6649 51.0276 23.4627 50.4089 23.2493C49.7902 23.0247 49.2517 22.6653 48.7934 22.1711C48.335 21.6657 48.1059 20.9862 48.1059 20.1326C48.1059 19.3913 48.3179 18.7174 48.7418 18.1109C49.1657 17.5044 49.7959 17.0271 50.6323 16.6789C51.4802 16.3307 52.5057 16.1566 53.7088 16.1566C54.5338 16.1566 55.3415 16.2465 56.1321 16.4262C56.9342 16.5946 57.6388 16.8474 58.2461 17.1843L57.0258 20.0652C55.8457 19.4812 54.7285 19.1891 53.6744 19.1891C52.6317 19.1891 52.1104 19.4362 52.1104 19.9304C52.1104 20.1663 52.2651 20.346 52.5745 20.4695C52.8838 20.5818 53.3937 20.7054 54.1041 20.8402C55.0207 21.0086 55.7941 21.2052 56.4243 21.4298C57.0545 21.6432 57.5987 21.997 58.057 22.4912C58.5268 22.9854 58.7617 23.6593 58.7617 24.5129C58.7617 25.2542 58.5497 25.9281 58.1258 26.5346C57.7019 27.1299 57.0659 27.6072 56.2181 27.9666C55.3816 28.3148 54.3619 28.4889 53.1588 28.4889Z" fill="#FFF3E6"/>
    <path d="M66.3794 18.8353C67.5366 18.8353 68.4647 19.1779 69.1636 19.863C69.874 20.5482 70.2292 21.5815 70.2292 22.9629V28.2193H66.345V23.62C66.345 22.5642 65.9611 22.0363 65.1935 22.0363C64.7581 22.0363 64.4029 22.188 64.1279 22.4912C63.8644 22.7832 63.7326 23.2493 63.7326 23.8895V28.2193H59.8484V15.7186H63.7326V19.7451C64.4544 19.1386 65.3367 18.8353 66.3794 18.8353Z" fill="#FFF3E6"/>
    <path d="M77.0509 28.3878C76.0082 28.3878 75.0687 28.1856 74.2323 27.7813C73.4073 27.3657 72.7599 26.7985 72.2901 26.0797C71.8204 25.3496 71.5855 24.5241 71.5855 23.6031C71.5855 22.6822 71.8204 21.8622 72.2901 21.1434C72.7599 20.4134 73.4073 19.8462 74.2323 19.4418C75.0687 19.0375 76.0082 18.8353 77.0509 18.8353C78.105 18.8353 79.0446 19.0375 79.8695 19.4418C80.7059 19.8462 81.3533 20.4134 81.8116 21.1434C82.2814 21.8622 82.5163 22.6822 82.5163 23.6031C82.5163 24.5241 82.2814 25.3496 81.8116 26.0797C81.3533 26.7985 80.7059 27.3657 79.8695 27.7813C79.0446 28.1856 78.105 28.3878 77.0509 28.3878ZM77.0509 25.4227C77.4977 25.4227 77.8644 25.2654 78.1508 24.9509C78.4373 24.6252 78.5805 24.176 78.5805 23.6031C78.5805 23.0303 78.4373 22.5867 78.1508 22.2722C77.8644 21.9577 77.4977 21.8005 77.0509 21.8005C76.604 21.8005 76.2374 21.9577 75.9509 22.2722C75.6645 22.5867 75.5213 23.0303 75.5213 23.6031C75.5213 24.176 75.6645 24.6252 75.9509 24.9509C76.2374 25.2654 76.604 25.4227 77.0509 25.4227Z" fill="#FFF3E6"/>
    <path d="M90.0052 18.8353C90.8301 18.8353 91.5864 19.0319 92.2738 19.425C92.9728 19.8069 93.5227 20.3628 93.9238 21.0929C94.3363 21.8229 94.5425 22.6653 94.5425 23.62C94.5425 24.5747 94.3363 25.417 93.9238 26.1471C93.5227 26.8659 92.9728 27.4219 92.2738 27.815C91.5864 28.1969 90.8301 28.3878 90.0052 28.3878C88.9625 28.3878 88.1662 28.1238 87.6162 27.596V31.4877H83.732V19.0038H87.4272V19.7619C87.9886 19.1442 88.8479 18.8353 90.0052 18.8353ZM89.0771 25.4227C89.524 25.4227 89.8906 25.2654 90.177 24.9509C90.4635 24.6364 90.6067 24.1928 90.6067 23.62C90.6067 23.0472 90.4635 22.6035 90.177 22.289C89.8906 21.9633 89.524 21.8005 89.0771 21.8005C88.6302 21.8005 88.2636 21.9633 87.9771 22.289C87.6907 22.6035 87.5475 23.0472 87.5475 23.62C87.5475 24.1928 87.6907 24.6364 87.9771 24.9509C88.2636 25.2654 88.6302 25.4227 89.0771 25.4227Z" fill="#FFF3E6"/>
    <path d="M102.039 18.8353C102.864 18.8353 103.62 19.0319 104.308 19.425C105.007 19.8069 105.557 20.3628 105.958 21.0929C106.37 21.8229 106.577 22.6653 106.577 23.62C106.577 24.5747 106.37 25.417 105.958 26.1471C105.557 26.8659 105.007 27.4219 104.308 27.815C103.62 28.1969 102.864 28.3878 102.039 28.3878C100.997 28.3878 100.2 28.1238 99.6503 27.596V31.4877H95.7661V19.0038H99.4613V19.7619C100.023 19.1442 100.882 18.8353 102.039 18.8353ZM101.111 25.4227C101.558 25.4227 101.925 25.2654 102.211 24.9509C102.498 24.6364 102.641 24.1928 102.641 23.62C102.641 23.0472 102.498 22.6035 102.211 22.289C101.925 21.9633 101.558 21.8005 101.111 21.8005C100.664 21.8005 100.298 21.9633 100.011 22.289C99.7248 22.6035 99.5816 23.0472 99.5816 23.62C99.5816 24.1928 99.7248 24.6364 100.011 24.9509C100.298 25.2654 100.664 25.4227 101.111 25.4227Z" fill="#FFF3E6"/>
    <path d="M118.015 19.0038L114.148 28.4046C113.656 29.6064 113.043 30.4488 112.309 30.9317C111.576 31.4147 110.676 31.6562 109.611 31.6562C109.084 31.6562 108.551 31.5776 108.013 31.4203C107.485 31.2743 107.067 31.0777 106.758 30.8307L108.047 28.2193C108.242 28.3653 108.459 28.4833 108.7 28.5731C108.952 28.663 109.193 28.7079 109.422 28.7079C109.846 28.7079 110.167 28.5843 110.384 28.3372L106.431 19.0038H110.419L112.361 23.9401L114.337 19.0038H118.015Z" fill="#FFF3E6"/>
    <path d="M129.471 28.2193L129.437 22.845L126.824 27.1579H125.037L122.425 23.0303V28.2193H118.729V16.4262H122.064L125.982 22.7102L129.798 16.4262H133.132L133.166 28.2193H129.471Z" fill="#FFF3E6"/>
    <path d="M139.218 18.8353C140.868 18.8353 142.128 19.2004 142.999 19.9304C143.87 20.6492 144.305 21.7612 144.305 23.2662V28.2193H140.696V27.0063C140.249 27.9273 139.361 28.3878 138.032 28.3878C137.287 28.3878 136.651 28.2642 136.124 28.0171C135.609 27.7588 135.213 27.4163 134.938 26.9895C134.675 26.5514 134.543 26.0629 134.543 25.5237C134.543 24.614 134.898 23.9232 135.609 23.4515C136.319 22.9798 137.396 22.7439 138.84 22.7439H140.404C140.278 22.0251 139.688 21.6657 138.634 21.6657C138.21 21.6657 137.78 21.7331 137.345 21.8679C136.909 21.9914 136.537 22.1655 136.227 22.3901L134.99 19.8799C135.528 19.5542 136.176 19.3014 136.932 19.1217C137.7 18.9308 138.462 18.8353 139.218 18.8353ZM139.201 26.0965C139.476 26.0965 139.722 26.0235 139.94 25.8775C140.157 25.7315 140.318 25.5125 140.421 25.2205V24.5803H139.458C138.668 24.5803 138.273 24.8386 138.273 25.3553C138.273 25.5687 138.353 25.7484 138.513 25.8944C138.685 26.0292 138.914 26.0965 139.201 26.0965Z" fill="#FFF3E6"/>
    <path d="M149.679 19.9978C150.366 19.2228 151.38 18.8353 152.721 18.8353V22.2048C152.412 22.1599 152.125 22.1374 151.862 22.1374C150.533 22.1374 149.868 22.8001 149.868 24.1254V28.2193H145.984V19.0038H149.679V19.9978Z" fill="#FFF3E6"/>
    <path d="M161 27.8992C160.416 28.2249 159.619 28.3878 158.611 28.3878C157.293 28.3878 156.279 28.0789 155.569 27.4612C154.859 26.8322 154.503 25.8944 154.503 24.6477V22.289H153.214V19.5092H154.503V16.9316H158.388V19.5092H160.313V22.289H158.388V24.614C158.388 24.8948 158.462 25.1138 158.611 25.271C158.76 25.4283 158.955 25.5069 159.195 25.5069C159.528 25.5069 159.82 25.4227 160.072 25.2542L161 27.8992Z" fill="#FFF3E6"/>
</svg>
