<svg width="161" height="41" viewBox="0 0 161 41" fill="none"
    xmlns="http://www.w3.org/2000/svg">
    <path d="M10.6269 0.00173796L10.6269 0L1.10824 0.0655021C0.491902 0.0697434 -0.00426277 0.567107 2.76161e-05 1.1764C0.004318 1.78568 0.507438 2.27617 1.12378 2.27193L8.86614 2.21865L10.0733 7.33331H6.57346C6.3631 7.33331 6.20703 7.52619 6.25324 7.72907L11.6423 31.3889C11.6537 31.4391 11.6989 31.4748 11.7509 31.4748C11.7765 31.4748 11.8 31.4663 11.8188 31.452C11.8563 31.4667 11.8973 31.4748 11.9401 31.4748H37.477C37.6583 31.4748 37.8052 31.3295 37.8052 31.1503V30.9134L43.086 7.72907C43.1322 7.52619 42.9761 7.33331 42.7658 7.33331H38.0022C37.8948 7.33331 37.7995 7.38427 37.7396 7.46307C37.6797 7.38427 37.5844 7.33331 37.477 7.33331H12.3653L10.6345 2.14295e-06L10.6269 0.00173796Z" fill="#FA87A1"/>
    <path d="M37.477 36.9261C37.477 38.7182 36.0075 40.1709 34.1947 40.1709C32.3818 40.1709 30.9123 38.7182 30.9123 36.9261C30.9123 35.134 32.3818 33.6813 34.1947 33.6813C36.0075 33.6813 37.477 35.134 37.477 36.9261Z" fill="#FA87A1"/>
    <path d="M15.4194 40.1709C17.2322 40.1709 18.7018 38.7182 18.7018 36.9261C18.7018 35.134 17.2322 33.6813 15.4194 33.6813C13.6066 33.6813 12.137 35.134 12.137 36.9261C12.137 38.7182 13.6066 40.1709 15.4194 40.1709Z" fill="#FA87A1"/>
    <path d="M20.2731 24.9163V17.6179L23.932 20.7188C24.0712 20.8369 24.2273 20.9222 24.3908 20.9755C24.8492 21.1664 25.3958 21.0998 25.8005 20.7569L29.3043 17.7874V24.9163C29.3043 25.6695 29.9155 26.2801 30.6694 26.2801C31.4234 26.2801 32.0346 25.6695 32.0346 24.9163V14.9503C32.0346 14.3469 31.6424 13.8351 31.0988 13.6553C30.6422 13.4686 30.0996 13.5364 29.6973 13.8773L24.8886 17.9528L20.0351 13.8393C19.6375 13.5024 19.1029 13.4322 18.6497 13.6109C18.0192 13.7315 17.5428 14.2853 17.5428 14.9503V24.9163C17.5428 25.6695 18.154 26.2801 18.9079 26.2801C19.6619 26.2801 20.2731 25.6695 20.2731 24.9163Z" fill="#FFF3E6"/>
    <path d="M53.1588 28.6106C52.162 28.6106 51.188 28.5035 50.237 28.2892C49.2975 28.0636 48.5241 27.7647 47.9168 27.3924L49.223 24.4823C49.7959 24.8094 50.4376 25.0745 51.1479 25.2775C51.8583 25.4693 52.5401 25.5651 53.1932 25.5651C53.7546 25.5651 54.1556 25.5144 54.3963 25.4129C54.6369 25.3001 54.7572 25.1365 54.7572 24.9222C54.7572 24.6741 54.5968 24.4879 54.2759 24.3639C53.9666 24.2398 53.451 24.1044 52.7291 23.9578C51.801 23.766 51.0276 23.563 50.4089 23.3487C49.7902 23.1231 49.2517 22.7622 48.7934 22.2659C48.335 21.7583 48.1059 21.0759 48.1059 20.2186C48.1059 19.4742 48.3179 18.7974 48.7418 18.1883C49.1657 17.5792 49.7959 17.0998 50.6323 16.7502C51.4802 16.4005 52.5057 16.2257 53.7088 16.2257C54.5338 16.2257 55.3415 16.3159 56.1321 16.4964C56.9342 16.6656 57.6388 16.9194 58.2461 17.2577L57.0258 20.1509C55.8457 19.5644 54.7285 19.2711 53.6744 19.2711C52.6317 19.2711 52.1104 19.5193 52.1104 20.0156C52.1104 20.2525 52.2651 20.4329 52.5745 20.557C52.8838 20.6698 53.3937 20.7939 54.1041 20.9292C55.0207 21.0984 55.7941 21.2958 56.4243 21.5214C57.0545 21.7357 57.5987 22.091 58.057 22.5873C58.5268 23.0836 58.7617 23.7604 58.7617 24.6177C58.7617 25.3621 58.5497 26.0389 58.1258 26.648C57.7019 27.2458 57.0659 27.7252 56.2181 28.0861C55.3816 28.4358 54.3619 28.6106 53.1588 28.6106Z" fill="#FA87A1"/>
    <path d="M66.3794 18.9158C67.5366 18.9158 68.4647 19.2599 69.1636 19.9479C69.874 20.636 70.2292 21.6737 70.2292 23.0611V28.3399H66.345V23.7209C66.345 22.6607 65.9611 22.1305 65.1935 22.1305C64.7581 22.1305 64.4029 22.2828 64.1279 22.5873C63.8644 22.8806 63.7326 23.3487 63.7326 23.9916V28.3399H59.8484V15.7858H63.7326V19.8295C64.4544 19.2204 65.3367 18.9158 66.3794 18.9158Z" fill="#FA87A1"/>
    <path d="M77.0509 28.5091C76.0082 28.5091 75.0687 28.3061 74.2323 27.9C73.4073 27.4827 72.7599 26.913 72.2901 26.1912C71.8204 25.458 71.5855 24.6289 71.5855 23.704C71.5855 22.7791 71.8204 21.9557 72.2901 21.2338C72.7599 20.5006 73.4073 19.931 74.2323 19.5249C75.0687 19.1189 76.0082 18.9158 77.0509 18.9158C78.105 18.9158 79.0446 19.1189 79.8695 19.5249C80.7059 19.931 81.3533 20.5006 81.8116 21.2338C82.2814 21.9557 82.5163 22.7791 82.5163 23.704C82.5163 24.6289 82.2814 25.458 81.8116 26.1912C81.3533 26.913 80.7059 27.4827 79.8695 27.9C79.0446 28.3061 78.105 28.5091 77.0509 28.5091ZM77.0509 25.5313C77.4977 25.5313 77.8644 25.3734 78.1508 25.0576C78.4373 24.7305 78.5805 24.2793 78.5805 23.704C78.5805 23.1288 78.4373 22.6832 78.1508 22.3674C77.8644 22.0516 77.4977 21.8936 77.0509 21.8936C76.604 21.8936 76.2374 22.0516 75.9509 22.3674C75.6645 22.6832 75.5213 23.1288 75.5213 23.704C75.5213 24.2793 75.6645 24.7305 75.9509 25.0576C76.2374 25.3734 76.604 25.5313 77.0509 25.5313Z" fill="#FA87A1"/>
    <path d="M90.0052 18.9158C90.8301 18.9158 91.5864 19.1132 92.2738 19.508C92.9728 19.8915 93.5227 20.4499 93.9238 21.183C94.3363 21.9162 94.5425 22.7622 94.5425 23.7209C94.5425 24.6797 94.3363 25.5257 93.9238 26.2588C93.5227 26.9807 92.9728 27.5391 92.2738 27.9338C91.5864 28.3174 90.8301 28.5091 90.0052 28.5091C88.9625 28.5091 88.1662 28.244 87.6162 27.7139V31.6223H83.732V19.085H87.4272V19.8464C87.9886 19.226 88.8479 18.9158 90.0052 18.9158ZM89.0771 25.5313C89.524 25.5313 89.8906 25.3734 90.177 25.0576C90.4635 24.7417 90.6067 24.2962 90.6067 23.7209C90.6067 23.1457 90.4635 22.7001 90.177 22.3843C89.8906 22.0572 89.524 21.8936 89.0771 21.8936C88.6302 21.8936 88.2636 22.0572 87.9771 22.3843C87.6907 22.7001 87.5475 23.1457 87.5475 23.7209C87.5475 24.2962 87.6907 24.7417 87.9771 25.0576C88.2636 25.3734 88.6302 25.5313 89.0771 25.5313Z" fill="#FA87A1"/>
    <path d="M102.039 18.9158C102.864 18.9158 103.62 19.1132 104.308 19.508C105.007 19.8915 105.557 20.4499 105.958 21.183C106.37 21.9162 106.577 22.7622 106.577 23.7209C106.577 24.6797 106.37 25.5257 105.958 26.2588C105.557 26.9807 105.007 27.5391 104.308 27.9338C103.62 28.3174 102.864 28.5091 102.039 28.5091C100.997 28.5091 100.2 28.244 99.6503 27.7139V31.6223H95.7661V19.085H99.4613V19.8464C100.023 19.226 100.882 18.9158 102.039 18.9158ZM101.111 25.5313C101.558 25.5313 101.925 25.3734 102.211 25.0576C102.498 24.7417 102.641 24.2962 102.641 23.7209C102.641 23.1457 102.498 22.7001 102.211 22.3843C101.925 22.0572 101.558 21.8936 101.111 21.8936C100.664 21.8936 100.298 22.0572 100.011 22.3843C99.7248 22.7001 99.5816 23.1457 99.5816 23.7209C99.5816 24.2962 99.7248 24.7417 100.011 25.0576C100.298 25.3734 100.664 25.5313 101.111 25.5313Z" fill="#FA87A1"/>
    <path d="M118.015 19.085L114.148 28.526C113.656 29.7329 113.043 30.5789 112.309 31.0639C111.576 31.549 110.676 31.7915 109.611 31.7915C109.084 31.7915 108.551 31.7125 108.013 31.5546C107.485 31.408 107.067 31.2106 106.758 30.9624L108.047 28.3399C108.242 28.4865 108.459 28.605 108.7 28.6952C108.952 28.7855 109.193 28.8306 109.422 28.8306C109.846 28.8306 110.167 28.7065 110.384 28.4583L106.431 19.085H110.419L112.361 24.0424L114.337 19.085H118.015Z" fill="#FA87A1"/>
    <path d="M129.471 28.3399L129.437 22.9426L126.824 27.274H125.037L122.425 23.1288V28.3399H118.729V16.4964H122.064L125.982 22.8073L129.798 16.4964H133.132L133.166 28.3399H129.471Z" fill="#FA87A1"/>
    <path d="M139.218 18.9158C140.868 18.9158 142.128 19.2824 142.999 20.0156C143.87 20.7375 144.305 21.8542 144.305 23.3656V28.3399H140.696V27.1217C140.249 28.0466 139.361 28.5091 138.032 28.5091C137.287 28.5091 136.651 28.385 136.124 28.1369C135.609 27.8774 135.213 27.5334 134.938 27.1048C134.675 26.6649 134.543 26.1742 134.543 25.6328C134.543 24.7192 134.898 24.0255 135.609 23.5517C136.319 23.078 137.396 22.8411 138.84 22.8411H140.404C140.278 22.1192 139.688 21.7583 138.634 21.7583C138.21 21.7583 137.78 21.826 137.345 21.9613C136.909 22.0854 136.537 22.2602 136.227 22.4858L134.99 19.9648C135.528 19.6377 136.176 19.3839 136.932 19.2035C137.7 19.0117 138.462 18.9158 139.218 18.9158ZM139.201 26.2081C139.476 26.2081 139.722 26.1348 139.94 25.9881C140.157 25.8415 140.318 25.6215 140.421 25.3283V24.6853H139.458C138.668 24.6853 138.273 24.9448 138.273 25.4636C138.273 25.6779 138.353 25.8584 138.513 26.005C138.685 26.1404 138.914 26.2081 139.201 26.2081Z" fill="#FA87A1"/>
    <path d="M149.679 20.0833C150.366 19.305 151.38 18.9158 152.721 18.9158V22.2997C152.412 22.2546 152.125 22.232 151.862 22.232C150.533 22.232 149.868 22.8975 149.868 24.2285V28.3399H145.984V19.085H149.679V20.0833Z" fill="#FA87A1"/>
    <path d="M161 28.0184C160.416 28.3456 159.619 28.5091 158.611 28.5091C157.293 28.5091 156.279 28.1989 155.569 27.5785C154.859 26.9469 154.503 26.005 154.503 24.753V22.3843H153.214V19.5926H154.503V17.0039H158.388V19.5926H160.313V22.3843H158.388V24.7192C158.388 25.0012 158.462 25.2211 158.611 25.379C158.76 25.5369 158.955 25.6159 159.195 25.6159C159.528 25.6159 159.82 25.5313 160.072 25.3621L161 28.0184Z" fill="#FA87A1"/>
</svg>
    