<svg width="35" height="35" viewBox="0 0 35 35" fill="none"
    xmlns="http://www.w3.org/2000/svg">
    <path d="M24.5 28C26.425 28 27.9825 29.575 27.9825 31.5C27.9825 33.425 26.425 35 24.5 35C22.575 35 21 33.425 21 31.5C21 29.575 22.575 28 24.5 28ZM35 0V3.5H31.5L25.2 16.7825L27.5625 21.07C27.8425 21.56 28 22.1375 28 22.75C28 24.675 26.425 26.25 24.5 26.25H3.5V22.75H23.765C24.01 22.75 24.2025 22.5575 24.2025 22.3125L24.15 22.1025L22.575 19.25H9.5375C8.225 19.25 7.07 18.5325 6.475 17.4475L0.210003 6.09C0.0699997 5.845 0 5.5475 0 5.25C0 4.2875 0.787498 3.5 1.75 3.5H27.6325L29.2775 0H35ZM7 28C8.925 28 10.4825 29.575 10.4825 31.5C10.4825 33.425 8.925 35 7 35C5.075 35 3.5 33.425 3.5 31.5C3.5 29.575 5.075 28 7 28Z" fill="white"/>
</svg>
    