<svg width="385" height="362" viewBox="0 0 385 362" fill="none"
    xmlns="http://www.w3.org/2000/svg">
    <rect x="92.8691" y="79.6016" width="231.225" height="176.262" fill="#FA87A1"/>
    <path fill-rule="evenodd" clip-rule="evenodd" d="M94.8768 0L94.8769 0.0156616L94.9441 1.93111e-05L110.397 66.084H334.594C335.552 66.084 336.403 66.5433 336.938 67.2534C337.473 66.5433 338.324 66.084 339.283 66.084H381.812C383.69 66.084 385.083 67.8221 384.671 69.6504L337.524 278.576V280.711C337.524 282.326 336.212 283.635 334.594 283.635H106.601C106.218 283.635 105.853 283.562 105.518 283.429C105.35 283.558 105.14 283.635 104.912 283.635C104.447 283.635 104.044 283.313 103.942 282.861L55.8288 69.6504C55.4162 67.8221 56.8096 66.084 58.6877 66.084H89.9344L79.1567 19.9934L10.0331 20.4735C4.5304 20.5117 0.038551 16.0917 0.000246555 10.6011C-0.0380579 5.11048 4.39168 0.628492 9.89435 0.590271L94.8768 0ZM179.083 160.632V225.835C179.083 232.564 173.616 238.019 166.872 238.019C160.128 238.019 154.661 232.564 154.661 225.835V136.799C154.661 130.858 158.923 125.91 164.562 124.833C168.616 123.237 173.398 123.864 176.954 126.874L220.366 163.623L263.377 127.214C266.975 124.168 271.828 123.562 275.913 125.23C280.775 126.836 284.283 131.409 284.283 136.799V225.835C284.283 232.564 278.816 238.019 272.072 238.019C265.328 238.019 259.861 232.564 259.861 225.835V162.146L228.522 188.675C224.902 191.739 220.013 192.334 215.913 190.628C214.451 190.152 213.055 189.39 211.809 188.335L179.083 160.632Z" fill="#FFF3E6"/>
    <path d="M305.289 362C321.474 362 334.594 348.908 334.594 332.759C334.594 316.61 321.474 303.519 305.289 303.519C289.104 303.519 275.984 316.61 275.984 332.759C275.984 348.908 289.104 362 305.289 362Z" fill="#FFF3E6"/>
    <path d="M166.969 332.759C166.969 348.908 153.849 362 137.664 362C121.479 362 108.359 348.908 108.359 332.759C108.359 316.61 121.479 303.519 137.664 303.519C153.849 303.519 166.969 316.61 166.969 332.759Z" fill="#FFF3E6"/>
</svg>
    