<svg width="419" height="52" viewBox="0 0 419 52" fill="none" xmlns="http://www.w3.org/2000/svg">
<path d="M74.632 34.384C73.24 34.384 71.88 34.232 70.552 33.928C69.24 33.608 68.16 33.184 67.312 32.656L69.136 28.528C69.936 28.992 70.832 29.368 71.824 29.656C72.816 29.928 73.768 30.064 74.68 30.064C75.464 30.064 76.024 29.992 76.36 29.848C76.696 29.688 76.864 29.456 76.864 29.152C76.864 28.8 76.64 28.536 76.192 28.36C75.76 28.184 75.04 27.992 74.032 27.784C72.736 27.512 71.656 27.224 70.792 26.92C69.928 26.6 69.176 26.088 68.536 25.384C67.896 24.664 67.576 23.696 67.576 22.48C67.576 21.424 67.872 20.464 68.464 19.6C69.056 18.736 69.936 18.056 71.104 17.56C72.288 17.064 73.72 16.816 75.4 16.816C76.552 16.816 77.68 16.944 78.784 17.2C79.904 17.44 80.888 17.8 81.736 18.28L80.032 22.384C78.384 21.552 76.824 21.136 75.352 21.136C73.896 21.136 73.168 21.488 73.168 22.192C73.168 22.528 73.384 22.784 73.816 22.96C74.248 23.12 74.96 23.296 75.952 23.488C77.232 23.728 78.312 24.008 79.192 24.328C80.072 24.632 80.832 25.136 81.472 25.84C82.128 26.544 82.456 27.504 82.456 28.72C82.456 29.776 82.16 30.736 81.568 31.6C80.976 32.448 80.088 33.128 78.904 33.64C77.736 34.136 76.312 34.384 74.632 34.384ZM93.0934 20.632C94.7094 20.632 96.0054 21.12 96.9814 22.096C97.9734 23.072 98.4694 24.544 98.4694 26.512V34H93.0454V27.448C93.0454 25.944 92.5094 25.192 91.4374 25.192C90.8294 25.192 90.3334 25.408 89.9494 25.84C89.5814 26.256 89.3974 26.92 89.3974 27.832V34H83.9734V16.192H89.3974V21.928C90.4054 21.064 91.6374 20.632 93.0934 20.632ZM107.995 34.24C106.539 34.24 105.227 33.952 104.059 33.376C102.907 32.784 102.003 31.976 101.347 30.952C100.691 29.912 100.363 28.736 100.363 27.424C100.363 26.112 100.691 24.944 101.347 23.92C102.003 22.88 102.907 22.072 104.059 21.496C105.227 20.92 106.539 20.632 107.995 20.632C109.467 20.632 110.779 20.92 111.931 21.496C113.099 22.072 114.003 22.88 114.643 23.92C115.299 24.944 115.627 26.112 115.627 27.424C115.627 28.736 115.299 29.912 114.643 30.952C114.003 31.976 113.099 32.784 111.931 33.376C110.779 33.952 109.467 34.24 107.995 34.24ZM107.995 30.016C108.619 30.016 109.131 29.792 109.531 29.344C109.931 28.88 110.131 28.24 110.131 27.424C110.131 26.608 109.931 25.976 109.531 25.528C109.131 25.08 108.619 24.856 107.995 24.856C107.371 24.856 106.859 25.08 106.459 25.528C106.059 25.976 105.859 26.608 105.859 27.424C105.859 28.24 106.059 28.88 106.459 29.344C106.859 29.792 107.371 30.016 107.995 30.016ZM126.085 20.632C127.237 20.632 128.293 20.912 129.253 21.472C130.229 22.016 130.997 22.808 131.557 23.848C132.133 24.888 132.421 26.088 132.421 27.448C132.421 28.808 132.133 30.008 131.557 31.048C130.997 32.072 130.229 32.864 129.253 33.424C128.293 33.968 127.237 34.24 126.085 34.24C124.629 34.24 123.517 33.864 122.749 33.112V38.656H117.325V20.872H122.485V21.952C123.269 21.072 124.469 20.632 126.085 20.632ZM124.789 30.016C125.413 30.016 125.925 29.792 126.325 29.344C126.725 28.896 126.925 28.264 126.925 27.448C126.925 26.632 126.725 26 126.325 25.552C125.925 25.088 125.413 24.856 124.789 24.856C124.165 24.856 123.653 25.088 123.253 25.552C122.853 26 122.653 26.632 122.653 27.448C122.653 28.264 122.853 28.896 123.253 29.344C123.653 29.792 124.165 30.016 124.789 30.016ZM142.89 20.632C144.042 20.632 145.098 20.912 146.058 21.472C147.034 22.016 147.802 22.808 148.362 23.848C148.938 24.888 149.226 26.088 149.226 27.448C149.226 28.808 148.938 30.008 148.362 31.048C147.802 32.072 147.034 32.864 146.058 33.424C145.098 33.968 144.042 34.24 142.89 34.24C141.434 34.24 140.322 33.864 139.554 33.112V38.656H134.13V20.872H139.29V21.952C140.074 21.072 141.274 20.632 142.89 20.632ZM141.594 30.016C142.218 30.016 142.73 29.792 143.13 29.344C143.53 28.896 143.73 28.264 143.73 27.448C143.73 26.632 143.53 26 143.13 25.552C142.73 25.088 142.218 24.856 141.594 24.856C140.97 24.856 140.458 25.088 140.058 25.552C139.658 26 139.458 26.632 139.458 27.448C139.458 28.264 139.658 28.896 140.058 29.344C140.458 29.792 140.97 30.016 141.594 30.016ZM165.199 20.872L159.799 34.264C159.111 35.976 158.255 37.176 157.231 37.864C156.207 38.552 154.951 38.896 153.463 38.896C152.727 38.896 151.983 38.784 151.231 38.56C150.495 38.352 149.911 38.072 149.479 37.72L151.279 34C151.551 34.208 151.855 34.376 152.191 34.504C152.543 34.632 152.879 34.696 153.199 34.696C153.791 34.696 154.239 34.52 154.543 34.168L149.023 20.872H154.591L157.303 27.904L160.063 20.872H165.199ZM181.196 34L181.148 26.344L177.5 32.488H175.004L171.356 26.608V34H166.196V17.2H170.852L176.324 26.152L181.652 17.2H186.308L186.356 34H181.196ZM194.807 20.632C197.111 20.632 198.871 21.152 200.087 22.192C201.303 23.216 201.911 24.8 201.911 26.944V34H196.871V32.272C196.247 33.584 195.007 34.24 193.151 34.24C192.111 34.24 191.223 34.064 190.487 33.712C189.767 33.344 189.215 32.856 188.831 32.248C188.463 31.624 188.279 30.928 188.279 30.16C188.279 28.864 188.775 27.88 189.767 27.208C190.759 26.536 192.263 26.2 194.279 26.2H196.463C196.287 25.176 195.463 24.664 193.991 24.664C193.399 24.664 192.799 24.76 192.191 24.952C191.583 25.128 191.063 25.376 190.631 25.696L188.903 22.12C189.655 21.656 190.559 21.296 191.615 21.04C192.687 20.768 193.751 20.632 194.807 20.632ZM194.783 30.976C195.167 30.976 195.511 30.872 195.815 30.664C196.119 30.456 196.343 30.144 196.487 29.728V28.816H195.143C194.039 28.816 193.487 29.184 193.487 29.92C193.487 30.224 193.599 30.48 193.823 30.688C194.063 30.88 194.383 30.976 194.783 30.976ZM209.415 22.288C210.375 21.184 211.791 20.632 213.663 20.632V25.432C213.231 25.368 212.831 25.336 212.463 25.336C210.607 25.336 209.679 26.28 209.679 28.168V34H204.255V20.872H209.415V22.288ZM225.224 33.544C224.408 34.008 223.296 34.24 221.888 34.24C220.048 34.24 218.632 33.8 217.64 32.92C216.648 32.024 216.152 30.688 216.152 28.912V25.552H214.352V21.592H216.152V17.92H221.576V21.592H224.264V25.552H221.576V28.864C221.576 29.264 221.68 29.576 221.888 29.8C222.096 30.024 222.368 30.136 222.704 30.136C223.168 30.136 223.576 30.016 223.928 29.776L225.224 33.544ZM233.954 16.192H238.898V38.656H233.954V16.192ZM265.397 17.2V34H259.733V27.808H254.501V34H248.837V17.2H254.501V23.152H259.733V17.2H265.397ZM281.926 27.424C281.926 27.504 281.902 27.928 281.854 28.696H272.734C272.926 29.192 273.246 29.576 273.694 29.848C274.142 30.104 274.702 30.232 275.374 30.232C275.95 30.232 276.43 30.16 276.814 30.016C277.214 29.872 277.646 29.624 278.11 29.272L280.942 32.128C279.662 33.536 277.75 34.24 275.206 34.24C273.622 34.24 272.23 33.952 271.03 33.376C269.83 32.784 268.902 31.968 268.246 30.928C267.59 29.888 267.262 28.72 267.262 27.424C267.262 26.112 267.582 24.944 268.222 23.92C268.878 22.88 269.766 22.072 270.886 21.496C272.022 20.92 273.294 20.632 274.702 20.632C276.03 20.632 277.238 20.896 278.326 21.424C279.43 21.952 280.302 22.728 280.942 23.752C281.598 24.776 281.926 26 281.926 27.424ZM274.75 24.328C274.19 24.328 273.726 24.48 273.358 24.784C272.99 25.088 272.75 25.52 272.638 26.08H276.862C276.75 25.536 276.51 25.112 276.142 24.808C275.774 24.488 275.31 24.328 274.75 24.328ZM283.638 16.192H289.062V34H283.638V16.192ZM300.226 20.632C301.378 20.632 302.434 20.912 303.394 21.472C304.37 22.016 305.138 22.808 305.698 23.848C306.274 24.888 306.562 26.088 306.562 27.448C306.562 28.808 306.274 30.008 305.698 31.048C305.138 32.072 304.37 32.864 303.394 33.424C302.434 33.968 301.378 34.24 300.226 34.24C298.77 34.24 297.658 33.864 296.89 33.112V38.656H291.466V20.872H296.626V21.952C297.41 21.072 298.61 20.632 300.226 20.632ZM298.93 30.016C299.554 30.016 300.066 29.792 300.466 29.344C300.866 28.896 301.066 28.264 301.066 27.448C301.066 26.632 300.866 26 300.466 25.552C300.066 25.088 299.554 24.856 298.93 24.856C298.306 24.856 297.794 25.088 297.394 25.552C296.994 26 296.794 26.632 296.794 27.448C296.794 28.264 296.994 28.896 297.394 29.344C297.794 29.792 298.306 30.016 298.93 30.016ZM324.322 34.384C322.546 34.384 320.946 34.016 319.522 33.28C318.098 32.528 316.978 31.488 316.162 30.16C315.362 28.816 314.962 27.296 314.962 25.6C314.962 23.904 315.362 22.392 316.162 21.064C316.978 19.72 318.098 18.68 319.522 17.944C320.946 17.192 322.546 16.816 324.322 16.816C325.954 16.816 327.41 17.104 328.69 17.68C329.97 18.256 331.026 19.088 331.858 20.176L328.282 23.368C327.242 22.056 326.018 21.4 324.61 21.4C323.426 21.4 322.474 21.784 321.754 22.552C321.034 23.304 320.674 24.32 320.674 25.6C320.674 26.88 321.034 27.904 321.754 28.672C322.474 29.424 323.426 29.8 324.61 29.8C326.018 29.8 327.242 29.144 328.282 27.832L331.858 31.024C331.026 32.112 329.97 32.944 328.69 33.52C327.41 34.096 325.954 34.384 324.322 34.384ZM346.941 27.424C346.941 27.504 346.917 27.928 346.869 28.696H337.749C337.941 29.192 338.261 29.576 338.709 29.848C339.157 30.104 339.717 30.232 340.389 30.232C340.965 30.232 341.445 30.16 341.829 30.016C342.229 29.872 342.661 29.624 343.125 29.272L345.957 32.128C344.677 33.536 342.765 34.24 340.221 34.24C338.637 34.24 337.245 33.952 336.045 33.376C334.845 32.784 333.917 31.968 333.261 30.928C332.605 29.888 332.277 28.72 332.277 27.424C332.277 26.112 332.597 24.944 333.237 23.92C333.893 22.88 334.781 22.072 335.901 21.496C337.037 20.92 338.309 20.632 339.717 20.632C341.045 20.632 342.253 20.896 343.341 21.424C344.445 21.952 345.317 22.728 345.957 23.752C346.613 24.776 346.941 26 346.941 27.424ZM339.765 24.328C339.205 24.328 338.741 24.48 338.373 24.784C338.005 25.088 337.765 25.52 337.653 26.08H341.877C341.765 25.536 341.525 25.112 341.157 24.808C340.789 24.488 340.325 24.328 339.765 24.328ZM357.773 20.632C359.389 20.632 360.685 21.12 361.661 22.096C362.653 23.072 363.149 24.544 363.149 26.512V34H357.725V27.448C357.725 25.944 357.189 25.192 356.117 25.192C355.509 25.192 355.013 25.408 354.629 25.84C354.261 26.256 354.077 26.92 354.077 27.832V34H348.653V20.872H353.813V22.168C354.325 21.656 354.917 21.272 355.589 21.016C356.261 20.76 356.989 20.632 357.773 20.632ZM375.177 33.544C374.361 34.008 373.249 34.24 371.841 34.24C370.001 34.24 368.585 33.8 367.593 32.92C366.601 32.024 366.105 30.688 366.105 28.912V25.552H364.305V21.592H366.105V17.92H371.529V21.592H374.217V25.552H371.529V28.864C371.529 29.264 371.633 29.576 371.841 29.8C372.049 30.024 372.321 30.136 372.657 30.136C373.121 30.136 373.529 30.016 373.881 29.776L375.177 33.544ZM390.16 27.424C390.16 27.504 390.136 27.928 390.088 28.696H380.968C381.16 29.192 381.48 29.576 381.928 29.848C382.376 30.104 382.936 30.232 383.608 30.232C384.184 30.232 384.664 30.16 385.048 30.016C385.448 29.872 385.88 29.624 386.344 29.272L389.176 32.128C387.896 33.536 385.984 34.24 383.44 34.24C381.856 34.24 380.464 33.952 379.264 33.376C378.064 32.784 377.136 31.968 376.48 30.928C375.824 29.888 375.496 28.72 375.496 27.424C375.496 26.112 375.816 24.944 376.456 23.92C377.112 22.88 378 22.072 379.12 21.496C380.256 20.92 381.528 20.632 382.936 20.632C384.264 20.632 385.472 20.896 386.56 21.424C387.664 21.952 388.536 22.728 389.176 23.752C389.832 24.776 390.16 26 390.16 27.424ZM382.984 24.328C382.424 24.328 381.96 24.48 381.592 24.784C381.224 25.088 380.984 25.52 380.872 26.08H385.096C384.984 25.536 384.744 25.112 384.376 24.808C384.008 24.488 383.544 24.328 382.984 24.328ZM397.032 22.288C397.992 21.184 399.408 20.632 401.28 20.632V25.432C400.848 25.368 400.448 25.336 400.08 25.336C398.224 25.336 397.296 26.28 397.296 28.168V34H391.872V20.872H397.032V22.288Z" fill="#FA87A1"/>
<path fill-rule="evenodd" clip-rule="evenodd" d="M13.431 0.00222476L13.4309 0L1.41466 0.0838488C0.636597 0.0892785 0.0102437 0.725951 0.0156599 1.5059C0.021076 2.28585 0.65621 2.91372 1.43427 2.90829L11.2082 2.84008L12.7321 9.38733H8.31392C8.04833 9.38733 7.85132 9.63422 7.90965 9.89391L14.7128 40.1808C14.7272 40.2451 14.7841 40.2908 14.8499 40.2908C14.8821 40.2908 14.9118 40.2799 14.9356 40.2615C14.983 40.2804 15.0346 40.2908 15.0887 40.2908H47.3263C47.5551 40.2908 47.7406 40.1047 47.7406 39.8754V39.5721L54.4069 9.89391C54.4653 9.63422 54.2683 9.38733 54.0027 9.38733H47.9892C47.8537 9.38733 47.7333 9.45254 47.6577 9.55348C47.5821 9.45254 47.4618 9.38733 47.3263 9.38733H15.6255L13.4404 2.74318e-06L13.431 0.00222476ZM47.3263 47.2689C47.3263 49.5629 45.4711 51.4226 43.1826 51.4226C40.8942 51.4226 39.039 49.5629 39.039 47.2689C39.039 44.9749 40.8942 43.1153 43.1826 43.1153C45.4711 43.1153 47.3263 44.9749 47.3263 47.2689ZM19.481 51.4226C21.7694 51.4226 23.6246 49.5629 23.6246 47.2689C23.6246 44.9749 21.7694 43.1153 19.481 43.1153C17.1924 43.1153 15.3373 44.9749 15.3373 47.2689C15.3373 49.5629 17.1924 51.4226 19.481 51.4226Z" fill="#FA87A1"/>
<path fill-rule="evenodd" clip-rule="evenodd" d="M25.3379 32.0803V22.818L29.9653 26.7533C30.1415 26.9031 30.3389 27.0113 30.5457 27.0791C31.1254 27.3213 31.8167 27.2368 32.3285 26.8016L36.7598 23.033V32.0803C36.7598 33.0361 37.5328 33.811 38.4864 33.811C39.4399 33.811 40.2129 33.0361 40.2129 32.0803V19.4325C40.2129 18.6668 39.7169 18.0173 39.0294 17.7892C38.4519 17.5522 37.7657 17.6382 37.257 18.0709L31.1752 23.243L25.0368 18.0226C24.534 17.595 23.858 17.506 23.2847 17.7327C22.4873 17.8858 21.8848 18.5886 21.8848 19.4325V32.0803C21.8848 33.0361 22.6578 33.811 23.6113 33.811C24.5649 33.811 25.3379 33.0361 25.3379 32.0803Z" fill="#FFF3E6"/>
</svg>
