<svg width="107" height="100" viewBox="0 0 107 100" fill="none"
    xmlns="http://www.w3.org/2000/svg">
    <rect x="25.6543" y="21.9883" width="63.8743" height="48.6911" fill="#FFF3E6"/>
    <path fill-rule="evenodd" clip-rule="evenodd" d="M26.2091 0L26.2091 0.00432641L26.2277 5.33457e-06L30.4964 18.2553H92.4292C92.694 18.2553 92.9291 18.3821 93.0768 18.5783C93.2245 18.3821 93.4596 18.2553 93.7245 18.2553H105.473C105.992 18.2553 106.377 18.7354 106.263 19.2404L93.2387 76.9546V77.5444C93.2387 77.9905 92.8763 78.3522 92.4292 78.3522H29.4477C29.3421 78.3522 29.2412 78.332 29.1487 78.2953C29.1023 78.331 29.0442 78.3522 28.9812 78.3522C28.8528 78.3522 28.7415 78.2634 28.7133 78.1384L15.4223 19.2404C15.3084 18.7354 15.6933 18.2553 16.2121 18.2553H24.8438L21.8665 5.52303L2.77157 5.65566C1.25149 5.66621 0.0106495 4.44521 6.81092e-05 2.92847C-0.0105132 1.41174 1.21317 0.173617 2.73325 0.163058L26.2091 0ZM49.4703 44.3735V62.3855C49.4703 64.2443 47.9602 65.7512 46.0972 65.7512C44.2343 65.7512 42.7241 64.2443 42.7241 62.3855V37.7898C42.7241 36.1487 43.9013 34.7819 45.4591 34.4842C46.579 34.0433 47.8999 34.2165 48.8822 35.0481L60.8746 45.1998L72.7562 35.1419C73.7501 34.3005 75.0907 34.1331 76.2191 34.5939C77.5622 35.0377 78.5312 36.3008 78.5312 37.7898V62.3855C78.5312 64.2443 77.021 65.7512 75.158 65.7512C73.2951 65.7512 71.7849 64.2443 71.7849 62.3855V44.7916L63.1276 52.1202C62.1277 52.9666 60.7771 53.1309 59.6446 52.6598C59.2406 52.5282 58.8549 52.3177 58.5108 52.0264L49.4703 44.3735Z" fill="#FA87A1"/>
    <path d="M84.334 100C88.8049 100 92.4293 96.3836 92.4293 91.9225C92.4293 87.4614 88.8049 83.8449 84.334 83.8449C79.8631 83.8449 76.2387 87.4614 76.2387 91.9225C76.2387 96.3836 79.8631 100 84.334 100Z" fill="#FA87A1"/>
    <path d="M46.1241 91.9225C46.1241 96.3836 42.4997 100 38.0288 100C33.5578 100 29.9334 96.3836 29.9334 91.9225C29.9334 87.4614 33.5578 83.8449 38.0288 83.8449C42.4997 83.8449 46.1241 87.4614 46.1241 91.9225Z" fill="#FA87A1"/>
</svg>
    